<svg xmlns="http://www.w3.org/2000/svg" viewBox="0 0 300 186">
  <rect width="300" height="186" style="stroke-width: 32; fill: rgb(133, 17, 211); stroke: rgb(106, 14, 169);"></rect>
  <g style="" transform="matrix(8.59397, 0, 0, 8.59397, 64.058914, 7.063896)">
    <path d="M 4.975 8.453 C 4.459 8.453 4.202 8.712 4.202 9.227 L 4.202 10.928 C 4.202 11.34 4.459 11.546 4.975 11.546 L 8.841 11.546 C 9.694 11.546 10.387 12.238 10.387 13.092 L 10.387 14.638 C 10.387 15.67 10.902 15.67 11.933 14.638 L 15.025 11.546 C 16.055 10.514 16.055 9.485 15.025 8.453 L 11.933 5.362 C 10.902 4.33 10.387 4.33 10.387 5.362 L 10.387 6.907 C 10.387 7.761 9.694 8.453 8.841 8.453 L 4.975 8.453 Z" fill="#fff" style="stroke-width: 1;"></path>
  </g>
</svg>